<?xml version="1.0" standalone="no"?>
<!DOCTYPE svg PUBLIC "-//W3C//DTD SVG 20010904//EN"
 "http://www.w3.org/TR/2001/REC-SVG-20010904/DTD/svg10.dtd">
<svg version="1.0" xmlns="http://www.w3.org/2000/svg"
 width="260.000000pt" height="260.000000pt" viewBox="0 0 260.000000 260.000000"
 preserveAspectRatio="xMidYMid meet">
<metadata>
Created by potrace 1.11, written by Peter Selinger 2001-2013
</metadata>
<g transform="translate(0.000000,260.000000) scale(0.100000,-0.100000)"
fill="#000000" stroke="none">
<path d="M0 1300 l0 -1300 1300 0 1300 0 0 1300 0 1300 -1300 0 -1300 0 0
-1300z m2355 0 l0 -1055 -1055 0 -1055 0 -3 1045 c-1 575 0 1051 3 1058 3 10
220 12 1057 10 l1053 -3 0 -1055z"/>
<path d="M1202 1970 c-185 -34 -303 -126 -346 -270 -44 -148 7 -323 121 -415
20 -16 118 -70 217 -120 158 -79 183 -95 200 -125 17 -32 17 -39 5 -65 -28
-56 -60 -70 -162 -68 -101 1 -200 24 -322 72 -42 17 -78 31 -81 31 -2 0 -4
-72 -4 -159 l0 -160 57 -21 c104 -39 166 -51 293 -57 278 -13 460 68 547 245
36 73 38 80 38 177 0 94 -2 105 -34 168 -45 92 -104 138 -318 242 -215 106
-248 143 -189 212 24 27 27 28 123 27 84 0 111 -5 193 -33 52 -18 101 -34 108
-35 8 0 34 51 68 133 29 74 53 135 51 136 -16 11 -130 50 -192 66 -92 23 -289
33 -373 19z"/>
</g>
</svg>
